# xmcd
#
# Track frame offsets:
#	150
#	17035
#	32967
#	49242
#	59346
#	80632
#	98931
#	117588
#	134762
#	152966
#	169851
#	185783
#	202058
#	212162
#	233448
#	251747
#	270404
#	287578
#
# Disc length: 4077
#
# Revision: 3
# Processed by: cddbd v1.5.1PL0 Copyright (c) Steve Scherf et al.
# Submitted via: VOLTOCDX V1.0.24 
# Normalized: r2:TSWAP
#
DISCID=160feb12
DTITLE=Various Artist - NorthStar Country Vol 3045
DYEAR=2004
DGENRE=Karaoke
TTITLE0=Reba McEntire - I'm Gonna Take That Mountain
TTITLE1=Toby Keith - I Love This Bar
TTITLE2=Brad Paisley - Little Moments
TTITLE3=Shania Twain - She's Not Just A Pretty Face
TTITLE4=Darryl Worley - Tennessee River Run
TTITLE5=Craig Morgan - Every Friday Afternoon
TTITLE6=Terri Clark - I Wanna Do It All
TTITLE7=Scotty Emerick - Toby Keith - I Can't Take You Anywhere
TTITLE8=Trace Adkins - Hot Mama
TTITLE9=Reba McEntire - I'm Gonna Take That Mountain
TTITLE10=Toby Keith - I Love This Bar
TTITLE11=Brad Paisley - Little Moments
TTITLE12=Shania Twain - She's Not Just A Pretty Face
TTITLE13=Darryl Worley - Tennessee River Run
TTITLE14=Craig Morgan - Every Friday Afternoon
TTITLE15=Terri Clark - I Wanna Do It All
TTITLE16=Scotty Emerick - Toby Keith - I Can't Take You Anywhere
TTITLE17=Trace Adkins - Hot Mama
EXTD=
EXTT0=
EXTT1=
EXTT2=
EXTT3=
EXTT4=
EXTT5=
EXTT6=
EXTT7=
EXTT8=
EXTT9=
EXTT10=
EXTT11=
EXTT12=
EXTT13=
EXTT14=
EXTT15=
EXTT16=
EXTT17=
PLAYORDER=
